<?xml version="1.0" encoding="UTF-8" standalone="no"?>
<!DOCTYPE svg PUBLIC "-//W3C//DTD SVG 1.1//EN"
 "http://www.w3.org/Graphics/SVG/1.1/DTD/svg11.dtd">
<!-- Generated by graphviz version 2.40.1 (20161225.0304)
 -->
<!-- Title: dependencies Pages: 1 -->
<svg width="540pt" height="211pt"
 viewBox="0.00 0.00 540.00 211.00" xmlns="http://www.w3.org/2000/svg" xmlns:xlink="http://www.w3.org/1999/xlink">
<g id="graph0" class="graph" transform="scale(1 1) rotate(0) translate(4 207)">
<title>dependencies</title>
<polygon fill="#ffffff" stroke="transparent" points="-4,4 -4,-207 536,-207 536,4 -4,4"/>
<text text-anchor="start" x="245.0091" y="-42.4" font-family="sans-serif" font-weight="bold" font-size="14.00" fill="#000000">Legend</text>
<polygon fill="#ffffb3" stroke="transparent" points="32,-10 32,-30 52,-30 52,-10 32,-10"/>
<text text-anchor="start" x="55.629" y="-15.4" font-family="sans-serif" font-size="14.00" fill="#000000"> &#160;Declarations</text>
<polygon fill="#8dd3c7" stroke="transparent" points="145,-10 145,-30 165,-30 165,-10 145,-10"/>
<text text-anchor="start" x="168.7251" y="-15.4" font-family="sans-serif" font-size="14.00" fill="#000000"> &#160;Module</text>
<polygon fill="#80b1d3" stroke="transparent" points="231,-10 231,-30 251,-30 251,-10 231,-10"/>
<text text-anchor="start" x="254.7812" y="-15.4" font-family="sans-serif" font-size="14.00" fill="#000000"> &#160;Bootstrap</text>
<polygon fill="#fdb462" stroke="transparent" points="328,-10 328,-30 348,-30 348,-10 328,-10"/>
<text text-anchor="start" x="351.6732" y="-15.4" font-family="sans-serif" font-size="14.00" fill="#000000"> &#160;Providers</text>
<polygon fill="#fb8072" stroke="transparent" points="424,-10 424,-30 444,-30 444,-10 424,-10"/>
<text text-anchor="start" x="447.7258" y="-15.4" font-family="sans-serif" font-size="14.00" fill="#000000"> &#160;Exports</text>
<g id="clust1" class="cluster">
<title>cluster_CategoryModule</title>
<polygon fill="none" stroke="#000000" stroke-dasharray="1,5" points="8,-70 8,-195 524,-195 524,-70 8,-70"/>
</g>
<g id="clust2" class="cluster">
<title>cluster_CategoryModule_declarations</title>
<polygon fill="none" stroke="#000000" points="312,-78 312,-130 516,-130 516,-78 312,-78"/>
</g>
<g id="clust4" class="cluster">
<title>cluster_CategoryModule_imports</title>
<polygon fill="none" stroke="#000000" points="16,-78 16,-130 304,-130 304,-78 16,-78"/>
</g>
<!-- CategoryContainerComponent -->
<g id="node1" class="node">
<title>CategoryContainerComponent</title>
<polygon fill="#ffffb3" stroke="#000000" points="507.8571,-122 320.1429,-122 320.1429,-86 507.8571,-86 507.8571,-122"/>
<text text-anchor="middle" x="414" y="-99.8" font-family="Times,serif" font-size="14.00" fill="#000000">CategoryContainerComponent</text>
</g>
<!-- CategoryModule -->
<g id="node2" class="node">
<title>CategoryModule</title>
<polygon fill="#8dd3c7" stroke="#000000" points="273.3669,-187 270.3669,-191 249.3669,-191 246.3669,-187 162.6331,-187 162.6331,-151 273.3669,-151 273.3669,-187"/>
<text text-anchor="middle" x="218" y="-164.8" font-family="Times,serif" font-size="14.00" fill="#000000">CategoryModule</text>
</g>
<!-- CategoryContainerComponent&#45;&gt;CategoryModule -->
<g id="edge1" class="edge">
<title>CategoryContainerComponent&#45;&gt;CategoryModule</title>
<path fill="none" stroke="#000000" d="M414,-122.1061C414,-141.3391 414,-169 414,-169 414,-169 283.3798,-169 283.3798,-169"/>
<polygon fill="#000000" stroke="#000000" points="283.3799,-165.5001 273.3798,-169 283.3798,-172.5001 283.3799,-165.5001"/>
</g>
<!-- CategoryRoutingModule -->
<g id="node3" class="node">
<title>CategoryRoutingModule</title>
<polygon fill="#8dd3c7" stroke="#000000" points="295.9846,-122 292.9846,-126 271.9846,-126 268.9846,-122 140.0154,-122 140.0154,-86 295.9846,-86 295.9846,-122"/>
<text text-anchor="middle" x="218" y="-99.8" font-family="Times,serif" font-size="14.00" fill="#000000">CategoryRoutingModule</text>
</g>
<!-- CategoryRoutingModule&#45;&gt;CategoryModule -->
<g id="edge2" class="edge">
<title>CategoryRoutingModule&#45;&gt;CategoryModule</title>
<path fill="none" stroke="#000000" d="M218,-122.1061C218,-122.1061 218,-140.991 218,-140.991"/>
<polygon fill="#000000" stroke="#000000" points="214.5001,-140.9909 218,-150.991 221.5001,-140.991 214.5001,-140.9909"/>
</g>
<!-- SharedModule -->
<g id="node4" class="node">
<title>SharedModule</title>
<polygon fill="#8dd3c7" stroke="#000000" points="122.4231,-122 119.4231,-126 98.4231,-126 95.4231,-122 23.5769,-122 23.5769,-86 122.4231,-86 122.4231,-122"/>
<text text-anchor="middle" x="73" y="-99.8" font-family="Times,serif" font-size="14.00" fill="#000000">SharedModule</text>
</g>
<!-- SharedModule&#45;&gt;CategoryModule -->
<g id="edge3" class="edge">
<title>SharedModule&#45;&gt;CategoryModule</title>
<path fill="none" stroke="#000000" d="M73,-122.1061C73,-141.3391 73,-169 73,-169 73,-169 152.3539,-169 152.3539,-169"/>
<polygon fill="#000000" stroke="#000000" points="152.3539,-172.5001 162.3539,-169 152.3539,-165.5001 152.3539,-172.5001"/>
</g>
</g>
</svg>
