<?xml version="1.0" encoding="UTF-8" standalone="no"?>
<!DOCTYPE svg PUBLIC "-//W3C//DTD SVG 1.1//EN"
 "http://www.w3.org/Graphics/SVG/1.1/DTD/svg11.dtd">
<!-- Generated by graphviz version 2.40.1 (20161225.0304)
 -->
<!-- Title: dependencies Pages: 1 -->
<svg width="504pt" height="211pt"
 viewBox="0.00 0.00 504.00 211.00" xmlns="http://www.w3.org/2000/svg" xmlns:xlink="http://www.w3.org/1999/xlink">
<g id="graph0" class="graph" transform="scale(1 1) rotate(0) translate(4 207)">
<title>dependencies</title>
<polygon fill="#ffffff" stroke="transparent" points="-4,4 -4,-207 500,-207 500,4 -4,4"/>
<text text-anchor="start" x="227.0091" y="-42.4" font-family="sans-serif" font-weight="bold" font-size="14.00" fill="#000000">Legend</text>
<polygon fill="#ffffb3" stroke="transparent" points="14,-10 14,-30 34,-30 34,-10 14,-10"/>
<text text-anchor="start" x="37.629" y="-15.4" font-family="sans-serif" font-size="14.00" fill="#000000"> &#160;Declarations</text>
<polygon fill="#8dd3c7" stroke="transparent" points="127,-10 127,-30 147,-30 147,-10 127,-10"/>
<text text-anchor="start" x="150.7251" y="-15.4" font-family="sans-serif" font-size="14.00" fill="#000000"> &#160;Module</text>
<polygon fill="#80b1d3" stroke="transparent" points="213,-10 213,-30 233,-30 233,-10 213,-10"/>
<text text-anchor="start" x="236.7812" y="-15.4" font-family="sans-serif" font-size="14.00" fill="#000000"> &#160;Bootstrap</text>
<polygon fill="#fdb462" stroke="transparent" points="310,-10 310,-30 330,-30 330,-10 310,-10"/>
<text text-anchor="start" x="333.6732" y="-15.4" font-family="sans-serif" font-size="14.00" fill="#000000"> &#160;Providers</text>
<polygon fill="#fb8072" stroke="transparent" points="406,-10 406,-30 426,-30 426,-10 406,-10"/>
<text text-anchor="start" x="429.7258" y="-15.4" font-family="sans-serif" font-size="14.00" fill="#000000"> &#160;Exports</text>
<g id="clust1" class="cluster">
<title>cluster_MyModule</title>
<polygon fill="none" stroke="#000000" stroke-dasharray="1,5" points="22,-70 22,-195 474,-195 474,-70 22,-70"/>
</g>
<g id="clust2" class="cluster">
<title>cluster_MyModule_declarations</title>
<polygon fill="none" stroke="#000000" points="294,-78 294,-130 466,-130 466,-78 294,-78"/>
</g>
<g id="clust4" class="cluster">
<title>cluster_MyModule_imports</title>
<polygon fill="none" stroke="#000000" points="30,-78 30,-130 286,-130 286,-78 30,-78"/>
</g>
<!-- MyContainerComponent -->
<g id="node1" class="node">
<title>MyContainerComponent</title>
<polygon fill="#ffffb3" stroke="#000000" points="457.9846,-122 302.0154,-122 302.0154,-86 457.9846,-86 457.9846,-122"/>
<text text-anchor="middle" x="380" y="-99.8" font-family="Times,serif" font-size="14.00" fill="#000000">MyContainerComponent</text>
</g>
<!-- MyModule -->
<g id="node2" class="node">
<title>MyModule</title>
<polygon fill="#8dd3c7" stroke="#000000" points="255.4944,-187 252.4944,-191 231.4944,-191 228.4944,-187 176.5056,-187 176.5056,-151 255.4944,-151 255.4944,-187"/>
<text text-anchor="middle" x="216" y="-164.8" font-family="Times,serif" font-size="14.00" fill="#000000">MyModule</text>
</g>
<!-- MyContainerComponent&#45;&gt;MyModule -->
<g id="edge1" class="edge">
<title>MyContainerComponent&#45;&gt;MyModule</title>
<path fill="none" stroke="#000000" d="M380,-122.1061C380,-141.3391 380,-169 380,-169 380,-169 265.6998,-169 265.6998,-169"/>
<polygon fill="#000000" stroke="#000000" points="265.6999,-165.5001 255.6998,-169 265.6998,-172.5001 265.6999,-165.5001"/>
</g>
<!-- MyRoutingModule -->
<g id="node3" class="node">
<title>MyRoutingModule</title>
<polygon fill="#8dd3c7" stroke="#000000" points="278.1123,-122 275.1123,-126 254.1123,-126 251.1123,-122 153.8877,-122 153.8877,-86 278.1123,-86 278.1123,-122"/>
<text text-anchor="middle" x="216" y="-99.8" font-family="Times,serif" font-size="14.00" fill="#000000">MyRoutingModule</text>
</g>
<!-- MyRoutingModule&#45;&gt;MyModule -->
<g id="edge2" class="edge">
<title>MyRoutingModule&#45;&gt;MyModule</title>
<path fill="none" stroke="#000000" d="M216,-122.1061C216,-122.1061 216,-140.991 216,-140.991"/>
<polygon fill="#000000" stroke="#000000" points="212.5001,-140.9909 216,-150.991 219.5001,-140.991 212.5001,-140.9909"/>
</g>
<!-- SharedModule -->
<g id="node4" class="node">
<title>SharedModule</title>
<polygon fill="#8dd3c7" stroke="#000000" points="136.4231,-122 133.4231,-126 112.4231,-126 109.4231,-122 37.5769,-122 37.5769,-86 136.4231,-86 136.4231,-122"/>
<text text-anchor="middle" x="87" y="-99.8" font-family="Times,serif" font-size="14.00" fill="#000000">SharedModule</text>
</g>
<!-- SharedModule&#45;&gt;MyModule -->
<g id="edge3" class="edge">
<title>SharedModule&#45;&gt;MyModule</title>
<path fill="none" stroke="#000000" d="M87,-122.1061C87,-141.3391 87,-169 87,-169 87,-169 166.2431,-169 166.2431,-169"/>
<polygon fill="#000000" stroke="#000000" points="166.2432,-172.5001 176.2431,-169 166.2431,-165.5001 166.2432,-172.5001"/>
</g>
</g>
</svg>
