<?xml version="1.0" encoding="UTF-8" standalone="no"?>
<!DOCTYPE svg PUBLIC "-//W3C//DTD SVG 1.1//EN"
 "http://www.w3.org/Graphics/SVG/1.1/DTD/svg11.dtd">
<!-- Generated by graphviz version 2.40.1 (20161225.0304)
 -->
<!-- Title: dependencies Pages: 1 -->
<svg width="580pt" height="211pt"
 viewBox="0.00 0.00 580.00 211.00" xmlns="http://www.w3.org/2000/svg" xmlns:xlink="http://www.w3.org/1999/xlink">
<g id="graph0" class="graph" transform="scale(1 1) rotate(0) translate(4 207)">
<title>dependencies</title>
<polygon fill="#ffffff" stroke="transparent" points="-4,4 -4,-207 576,-207 576,4 -4,4"/>
<text text-anchor="start" x="265.0091" y="-42.4" font-family="sans-serif" font-weight="bold" font-size="14.00" fill="#000000">Legend</text>
<polygon fill="#ffffb3" stroke="transparent" points="52,-10 52,-30 72,-30 72,-10 52,-10"/>
<text text-anchor="start" x="75.629" y="-15.4" font-family="sans-serif" font-size="14.00" fill="#000000"> &#160;Declarations</text>
<polygon fill="#8dd3c7" stroke="transparent" points="165,-10 165,-30 185,-30 185,-10 165,-10"/>
<text text-anchor="start" x="188.7251" y="-15.4" font-family="sans-serif" font-size="14.00" fill="#000000"> &#160;Module</text>
<polygon fill="#80b1d3" stroke="transparent" points="251,-10 251,-30 271,-30 271,-10 251,-10"/>
<text text-anchor="start" x="274.7812" y="-15.4" font-family="sans-serif" font-size="14.00" fill="#000000"> &#160;Bootstrap</text>
<polygon fill="#fdb462" stroke="transparent" points="348,-10 348,-30 368,-30 368,-10 348,-10"/>
<text text-anchor="start" x="371.6732" y="-15.4" font-family="sans-serif" font-size="14.00" fill="#000000"> &#160;Providers</text>
<polygon fill="#fb8072" stroke="transparent" points="444,-10 444,-30 464,-30 464,-10 444,-10"/>
<text text-anchor="start" x="467.7258" y="-15.4" font-family="sans-serif" font-size="14.00" fill="#000000"> &#160;Exports</text>
<g id="clust1" class="cluster">
<title>cluster_RecommendModule</title>
<polygon fill="none" stroke="#000000" stroke-dasharray="1,5" points="8,-70 8,-195 564,-195 564,-70 8,-70"/>
</g>
<g id="clust2" class="cluster">
<title>cluster_RecommendModule_declarations</title>
<polygon fill="none" stroke="#000000" points="332,-78 332,-130 556,-130 556,-78 332,-78"/>
</g>
<g id="clust4" class="cluster">
<title>cluster_RecommendModule_imports</title>
<polygon fill="none" stroke="#000000" points="16,-78 16,-130 324,-130 324,-78 16,-78"/>
</g>
<!-- RecommendContainerComponent -->
<g id="node1" class="node">
<title>RecommendContainerComponent</title>
<polygon fill="#ffffb3" stroke="#000000" points="547.8018,-122 340.1982,-122 340.1982,-86 547.8018,-86 547.8018,-122"/>
<text text-anchor="middle" x="444" y="-99.8" font-family="Times,serif" font-size="14.00" fill="#000000">RecommendContainerComponent</text>
</g>
<!-- RecommendModule -->
<g id="node2" class="node">
<title>RecommendModule</title>
<polygon fill="#8dd3c7" stroke="#000000" points="293.3118,-187 290.3118,-191 269.3118,-191 266.3118,-187 162.6882,-187 162.6882,-151 293.3118,-151 293.3118,-187"/>
<text text-anchor="middle" x="228" y="-164.8" font-family="Times,serif" font-size="14.00" fill="#000000">RecommendModule</text>
</g>
<!-- RecommendContainerComponent&#45;&gt;RecommendModule -->
<g id="edge1" class="edge">
<title>RecommendContainerComponent&#45;&gt;RecommendModule</title>
<path fill="none" stroke="#000000" d="M444,-122.1061C444,-141.3391 444,-169 444,-169 444,-169 303.3933,-169 303.3933,-169"/>
<polygon fill="#000000" stroke="#000000" points="303.3933,-165.5001 293.3933,-169 303.3933,-172.5001 303.3933,-165.5001"/>
</g>
<!-- RecommendRoutingModule -->
<g id="node3" class="node">
<title>RecommendRoutingModule</title>
<polygon fill="#8dd3c7" stroke="#000000" points="315.9297,-122 312.9297,-126 291.9297,-126 288.9297,-122 140.0703,-122 140.0703,-86 315.9297,-86 315.9297,-122"/>
<text text-anchor="middle" x="228" y="-99.8" font-family="Times,serif" font-size="14.00" fill="#000000">RecommendRoutingModule</text>
</g>
<!-- RecommendRoutingModule&#45;&gt;RecommendModule -->
<g id="edge2" class="edge">
<title>RecommendRoutingModule&#45;&gt;RecommendModule</title>
<path fill="none" stroke="#000000" d="M228,-122.1061C228,-122.1061 228,-140.991 228,-140.991"/>
<polygon fill="#000000" stroke="#000000" points="224.5001,-140.9909 228,-150.991 231.5001,-140.991 224.5001,-140.9909"/>
</g>
<!-- SharedModule -->
<g id="node4" class="node">
<title>SharedModule</title>
<polygon fill="#8dd3c7" stroke="#000000" points="122.4231,-122 119.4231,-126 98.4231,-126 95.4231,-122 23.5769,-122 23.5769,-86 122.4231,-86 122.4231,-122"/>
<text text-anchor="middle" x="73" y="-99.8" font-family="Times,serif" font-size="14.00" fill="#000000">SharedModule</text>
</g>
<!-- SharedModule&#45;&gt;RecommendModule -->
<g id="edge3" class="edge">
<title>SharedModule&#45;&gt;RecommendModule</title>
<path fill="none" stroke="#000000" d="M73,-122.1061C73,-141.3391 73,-169 73,-169 73,-169 152.7153,-169 152.7153,-169"/>
<polygon fill="#000000" stroke="#000000" points="152.7153,-172.5001 162.7153,-169 152.7152,-165.5001 152.7153,-172.5001"/>
</g>
</g>
</svg>
